<?xml version="1.0" encoding="utf-8"?>
<!-- Generator: Adobe Illustrator 24.1.2, SVG Export Plug-In . SVG Version: 6.00 Build 0)  -->
<svg version="1.1" id="Calque_1" xmlns="http://www.w3.org/2000/svg" xmlns:xlink="http://www.w3.org/1999/xlink" x="0px" y="0px"
	 viewBox="0 0 1366 768" style="enable-background:new 0 0 1366 768;" xml:space="preserve">
<style type="text/css">
	.st0{fill:none;}
	.st1{fill:#FF6B00;}
	.st2{fill:#C04D00;stroke:#000000;stroke-miterlimit:10;}
	.st3{stroke:#000000;stroke-miterlimit:10;}
	.st4{fill:none;stroke:#000000;stroke-width:10;stroke-miterlimit:10;}
	.st5{fill:none;stroke:#000000;stroke-width:3;stroke-miterlimit:10;}
	.st6{fill:#F2B70D;}
	.st7{fill:#FF6B00;stroke:#000000;stroke-miterlimit:10;}
	.st8{fill:#FF9015;}
	.st9{fill:#FF9015;stroke:#000000;stroke-miterlimit:10;}
	.st10{fill:none;stroke:#000000;stroke-width:8;stroke-miterlimit:10;}
</style>
<g>
	<path d="M234.4,142.1c0-3.2,2.2-6.9,4.9-6.9h133.1c2.2,0,3.7,2.6,3.7,5.8v95.4c0,3.2-1.9,5.3-4.1,5.3h-62.6c-1.5,0-2.6,1.6-2.6,3.7
		v29.7c0,2.1,1.5,3.7,2.6,3.7H339c1.5,0,2.6,1.6,2.6,3.7V379c0,2.6-1.5,4.8-3,4.8h-30.4c-1.5,0-2.6,1.6-2.6,4.2v31.3
		c0,2.1,1.1,3.7,2.2,3.7h64.9c2.6,0,4.1,2.6,4.1,5.3v98.5c0,3.2-1.9,5.8-4.1,5.8H238.5c-2.2,0-4.1-3.2-4.1-6.9V142.1z"/>
	<path d="M511,135.2c2.6,0,4.5,3.2,4.9,6.9L567.3,521c0.7,5.8-1.1,11.7-5.2,11.7h-60.7c-2.2,0-4.5-2.1-4.9-5.3l-7.5-79.5
		c-0.4-2.6-1.9-4.2-3.7-4.2h-20.2c-1.5,0-3,2.1-3.4,5.3l-7.1,77.9c-0.4,3.7-3,5.8-4.9,5.8h-61.9c-3.4,0-5.2-3.7-4.5-9l50.2-382
		c0.4-2.6,2.2-6.4,4.5-6.4H511z M478,335c-0.7-7.4-1.5-12.2-2.6-12.2c-1.1,0-1.9,3.7-2.6,12.2l-4.9,50.3c-0.4,2.6,0.4,5.3,2.2,5.3
		c12,0,13.1,0,12.7-4.8L478,335z"/>
	<path d="M597.6,532.6c-2.6,0-5.2-3.2-5.2-7.4V248.6c0-3.7-2.2-6.4-4.9-6.4H550c-2.2,0-4.9-4.2-4.9-7.4v-94.3c0-3.2,1.1-5.3,3.4-5.3
		H709c2.6,0,4.9,2.1,4.9,6.4v93.3c0,4.2-2.2,7.4-5.2,7.4h-37.5c-2.6,0-4.5,2.6-4.5,7.4v276c0,3.7-2.2,6.9-5.2,6.9H597.6z"/>
</g>
<g>
	<path d="M764.3,234c-0.8-0.7-0.7-2.2,0.3-3.3l84.8-100.1c0.6-0.7,1.6-1,2.2-0.5l19.5,16.6c0.8,0.7,0.9,1.7,0.2,2.5l-85.1,100.4
		c-0.7,0.8-2.1,1.3-2.9,0.6L764.3,234z"/>
	<path d="M804.4,268.1c-0.8-0.7-0.9-2.2,0-3.3l61.1-72.1c0.8-1,0.7-2.2-0.1-2.9l-11.4-9.7c-0.7-0.6-0.5-2.4,0.2-3.2l20.8-24.6
		c0.7-0.8,1.5-1.1,2.2-0.5l48.9,41.5c0.8,0.7,1,1.8,0.1,2.9l-20.6,24.3c-0.9,1.1-2.3,1.4-3.2,0.6l-11.4-9.7c-0.8-0.7-2-0.5-3,0.8
		l-61,71.9c-0.8,1-2.2,1.2-3.1,0.4L804.4,268.1z"/>
</g>
<g>
	<path class="st1" d="M239.6,562.3l17.8,0c15.4,0,27.9,15.5,27.9,34.5c0,19.1-12.5,34.5-27.9,34.5l-17.8,0L239.6,562.3z
		 M257.4,619.3c9.4,0,16.8-9.8,16.8-22.4c0-12.6-7.4-22.5-16.8-22.5l-6.6,0l0,44.8L257.4,619.3z"/>
	<path class="st1" d="M303.8,574.4l0,16.4l18.7,0l0,12.2l-18.7,0l0,16.3l21.9,0l0,12.2l-33.1,0l0-69.1l33.1,0l0,12.1L303.8,574.4z
		 M313.3,554.7l-8.2,0l6.2-15.4l10.9,0L313.3,554.7z"/>
	<path class="st1" d="M332.7,562.4l11.2,0l0,56.9l18.8,0l0,12.2l-30,0L332.7,562.4z"/>
	<path class="st1" d="M369.6,562.4l11.2,0l0,69.1l-11.2,0L369.6,562.4z"/>
	<path class="st1" d="M388.1,596.9c0-19.6,11-35.5,27.2-35.4c4.7,0,9.1,1.6,12.9,4.5l0,15.5c-3.6-4.7-8-6.7-12.9-6.7
		c-10.5,0-16.6,9.8-16.6,22.2c0,12.4,6.1,22.3,16.6,22.3c5,0,9.5-2.2,12.9-6.8l0,15.5c-3.8,2.9-8.3,4.5-12.9,4.5
		C399,632.4,388.1,616.5,388.1,596.9z"/>
	<path class="st1" d="M436.2,562.4l11.2,0l0,69.1l-11.2,0L436.2,562.4z"/>
	<path class="st1" d="M467.5,574.5l0,16.4l18.7,0l0,12.2l-18.7,0l0,16.3l21.9,0l0,12.2l-33.1,0l0-69.1l33.1,0l0,12.1L467.5,574.5z"
		/>
	<path class="st1" d="M496.6,609.2l0-46.8l11.2,0l0,44.3c0,7.6,5.1,13.5,11.6,13.5c6.5,0,11.6-6,11.6-13.5l0-44.3l11.2,0l0,46.8
		c0,13-10,23.2-22.8,23.2C506.6,632.4,496.6,622.2,496.6,609.2z"/>
	<path class="st1" d="M549.5,619.6l7.7-9.5c3.2,6.1,8.4,9.4,14.6,9.4c5.1,0,8.8-2.1,8.9-7.5c0-6.4-6.2-9.3-12.7-12.4
		c-7.6-3.7-15.6-7.9-15.6-19.1c0-11.6,8.1-19.1,18.8-19.1c8.8,0,15.9,4.1,20.4,10l-7.3,8.7c-3.4-4.8-7.4-7.2-12.9-7.2
		c-4.5,0-7.6,2.7-7.6,6.9c0,4.7,4.8,7.1,10.5,9.9c8,4,17.7,8.7,17.7,22c0,14-9.3,20.5-20.7,20.5
		C562.5,632.4,554.2,627.3,549.5,619.6z"/>
	<path class="st1" d="M610.6,574.5l0,16.4l18.7,0l0,12.2l-18.7,0l0,16.3l21.9,0l0,12.2l-33.1,0l0-69.1l33.1,0l0,12.1L610.6,574.5z"
		/>
	<path class="st1" d="M700.2,562.5l0,69.1l-11.2,0l0-49.5l-19.3,36.3l-19-36.3l0,49.5l-11.2,0l0-69.1l12.1,0l18.2,33.6l18.4-33.6
		L700.2,562.5z"/>
	<path class="st1" d="M720.3,574.5l0,16.4l18.7,0l0,12.2l-18.7,0l0,16.3l21.9,0l0,12.2l-33.1,0l0-69.1l33.1,0l0,12.1L720.3,574.5z"
		/>
	<path class="st1" d="M800.4,562.5l0,69.1l-11.4,0l-28.5-48.1l0,48.1l-11.2,0l0-69.1l11.4,0l28.5,48l0-48L800.4,562.5z"/>
	<path class="st1" d="M846.2,574.6l-14.3,0l0,57l-11.1,0l0-57l-14.3,0l0-12.1l39.7,0L846.2,574.6z"/>
	<path class="st1" d="M868.8,619.7l7.7-9.5c3.2,6.1,8.4,9.4,14.6,9.4c5.1,0,8.8-2.1,8.9-7.5c0-6.4-6.2-9.3-12.7-12.4
		c-7.6-3.7-15.6-7.9-15.6-19.1c0-11.6,8.1-19.1,18.8-19.1c8.8,0,15.9,4.1,20.4,10l-7.3,8.7c-3.4-4.8-7.4-7.2-12.9-7.2
		c-4.5,0-7.6,2.7-7.6,6.9c0,4.7,4.8,7.1,10.5,9.9c8,4,17.7,8.7,17.7,22c0,14-9.3,20.5-20.7,20.5
		C881.8,632.5,873.5,627.3,868.8,619.7z"/>
	<path class="st1" d="M918.7,562.5l11.2,0l0,69.1l-11.2,0L918.7,562.5z"/>
	<path class="st1" d="M999.5,562.5l0,69.1l-11.1,0l0-49.5l-19.3,36.3l-19-36.3l0,49.5l-11.2,0l0-69.1l12.1,0l18.2,33.6l18.4-33.6
		L999.5,562.5z"/>
	<path class="st1" d="M1047.9,583.1c0,11.4-7.2,20.1-16.5,20.1l-11.8,0l0,28.5l-11.2,0l0-69.1l23,0
		C1040.7,562.6,1047.9,571.8,1047.9,583.1z M1037.8,583.2c0-5.1-3.3-8.6-7.4-8.6l-10.8,0l0,17.2l10.8,0
		C1034.5,591.8,1037.8,588.4,1037.8,583.2z"/>
	<path class="st1" d="M1053.7,562.6l11.2,0l0,56.9l18.8,0l0,12.2l-30,0L1053.7,562.6z"/>
	<path class="st1" d="M1101.8,574.6l0,16.4l18.7,0l0,12.2l-18.7,0l0,16.3l21.9,0l0,12.2l-33.1,0l0-69.1l33.1,0l0,12.1L1101.8,574.6z
		"/>
</g>
<g>
	<path class="st7" d="M1026.3,181.4c0,16.5-13.4,29.8-29.8,29.8c-39.6-1.6-39.6-58.1,0-59.7C1013,151.6,1026.3,165,1026.3,181.4z"/>
	<path class="st7" d="M1037.2,312.4c-3.3,5.1-10,6.4-15,3.2l-43.3-28c-2.7-1.7-4.4-4.5-4.8-7.5c-1.5-1.2-2.7-2.7-3.5-4.6l-9.5-24.2
		l-11.6-29.6c-0.5-1.3-0.8-2.7-0.7-4.1c0-2.6,1-5.1,2.7-7.1c0.2-0.2,0.5-0.5,0.7-0.7c1-0.9,2.1-1.7,3.4-2.2c1.4-0.5,2.8-0.8,4.2-0.7
		c0.2,0,0.4,0,0.6,0c2.4,0.2,4.7,1.2,6.5,2.8c0.1,0.1,0.3,0.3,0.4,0.4c0.2,0.2,0.4,0.4,0.5,0.6c0.8,0.9,1.4,1.9,1.9,3.1l7.8,19.9
		l13.3,33.9c0.3,0.7,0.5,1.5,0.6,2.3l42.6,27.5C1039,300.7,1040.5,307.4,1037.2,312.4z"/>
	<path class="st3" d="M1078.4,451.3c0,8.2-6.7,14.9-14.9,14.9c-14.3,0-20.3-18.3-9-26.8c-0.2-0.4-0.4-0.8-0.6-1.2
		c-0.2-0.4-0.4-0.8-0.6-1.3c-0.1-0.3-0.3-0.6-0.4-0.9c0,0,0,0,0-0.1c-0.6-1.2-1.2-2.6-1.8-4c-0.1-0.3-0.2-0.5-0.4-0.8
		c-0.1-0.3-0.3-0.7-0.5-1c0,0,0,0,0,0c0,0,0,0,0-0.1c-0.1-0.3-0.3-0.7-0.4-1c-0.2-0.4-0.3-0.7-0.5-1.1c-0.1-0.3-0.2-0.5-0.4-0.8
		c-0.1-0.1-0.1-0.2-0.1-0.3c-0.2-0.4-0.3-0.8-0.5-1.1c-0.2-0.5-0.5-1-0.7-1.6c-0.1-0.2-0.2-0.5-0.4-0.8l-0.3-0.7
		c-0.5-1.1-1-2.1-1.5-3.2c-0.3-0.6-0.6-1.3-0.9-1.9c-0.8-1.7-1.6-3.5-2.4-5.3c-0.4-0.8-0.7-1.6-1.1-2.4c-0.4-0.9-0.9-1.9-1.3-2.8
		c-0.6-1.3-1.2-2.6-1.8-3.9c-0.4-0.9-0.8-1.7-1.2-2.6c0-0.1-0.1-0.2-0.1-0.3c-0.2-0.3-0.3-0.7-0.5-1c-0.1-0.2-0.2-0.4-0.3-0.6
		c0,0,0,0,0,0c-0.2-0.5-0.5-1-0.7-1.6c0,0,0-0.1-0.1-0.1c-0.1-0.3-0.3-0.6-0.4-0.9c-0.1-0.1-0.1-0.3-0.2-0.4
		c-0.2-0.4-0.3-0.7-0.5-1.1c-0.2-0.4-0.3-0.7-0.5-1.1l-0.5-1.1c-0.2-0.5-0.4-0.9-0.6-1.4c-0.5-1.1-1-2.2-1.5-3.2
		c-0.1-0.4-0.3-0.7-0.5-1c0-0.1,0-0.1-0.1-0.1c0,0-0.1-0.1-0.1-0.1c0-0.1-0.1-0.1-0.1-0.2c-0.1-0.3-0.3-0.6-0.4-0.9
		c-0.4-0.8-0.7-1.6-1.1-2.4c-0.2-0.4-0.3-0.8-0.5-1.2c-0.2-0.4-0.4-0.8-0.5-1.2c-0.1-0.2-0.2-0.4-0.2-0.5c0-0.1-0.1-0.2-0.1-0.2
		c-0.1-0.3-0.3-0.6-0.4-0.9c-0.1-0.1-0.1-0.3-0.2-0.4c-2-4.4-3.8-8.3-5.2-11.4l-78.3,87.7c9.9,13-0.9,32.1-17.3,30.2l-1.1,5.5h4.5
		c2.3-0.1,3.6,3.1,1.9,4.6c-0.5,0.5-1.2,0.8-1.9,0.8h-13.6c-1.5,0-2.7-1.2-2.7-2.7c0-1.5,1.2-2.7,2.7-2.7h4.9l1.3-6.4
		c-15.3-5-17.6-26.1-3.7-34.3l-29.4-74.3c-3.8,4.7-8.6,10.8-13.8,17.4c-0.8,1-1.5,1.9-2.3,2.9c-0.3,0.3-0.5,0.7-0.8,1
		c-0.2,0.2-0.3,0.4-0.5,0.7c-0.4,0.5-0.7,0.9-1.1,1.4c-1.2,1.5-2.4,3-3.7,4.6c-0.2,0.2-0.4,0.5-0.6,0.7c-0.2,0.3-0.4,0.5-0.7,0.8
		c-1.4,1.7-2.8,3.5-4.1,5.2c-0.1,0.1-0.2,0.3-0.3,0.4c-0.5,0.6-1,1.2-1.5,1.9c-0.1,0.1-0.1,0.1-0.1,0.2c-0.5,0.6-0.9,1.2-1.4,1.7
		c-2.3,2.9-4.6,5.8-6.9,8.6c-0.3,0.3-0.5,0.6-0.7,0.9c-1.1,1.4-2.2,2.8-3.3,4.1c-0.5,0.7-1.1,1.3-1.6,2c-1.3,1.6-2.5,3.2-3.7,4.7
		c-0.3,0.4-0.6,0.7-0.9,1.1c-0.8,1.1-1.6,2.1-2.4,3.1c-0.2,0.3-0.4,0.5-0.6,0.7c-1.6,2-3.1,3.9-4.5,5.6c10.3,8.9,4,26.2-9.8,26.2
		c-8.2,0-14.9-6.7-14.9-14.9c-0.2-9.8,9.8-17.2,19.2-14.3c0.5-0.6,1-1.3,1.5-2c0.1-0.1,0.2-0.3,0.3-0.4c0.9-1.2,1.8-2.4,2.8-3.7
		c0.3-0.4,0.6-0.8,0.9-1.1c0.9-1.2,1.7-2.4,2.7-3.6c0.2-0.3,0.5-0.6,0.7-0.9c0.4-0.5,0.8-1,1.2-1.6c0.8-1.1,1.7-2.2,2.5-3.4
		c0.3-0.3,0.5-0.7,0.7-1c0.9-1.2,1.8-2.4,2.7-3.7l0.5-0.6c0.3-0.4,0.6-0.8,0.9-1.2c0.5-0.7,1-1.4,1.5-2.1c0.3-0.4,0.5-0.7,0.8-1.1
		c4.2-5.6,8.5-11.4,12.7-17.1c0.8-1,1.6-2.1,2.3-3.1c0.3-0.4,0.7-0.9,1-1.3c1.1-1.4,2.1-2.8,3.1-4.2c0.3-0.3,0.5-0.7,0.8-1
		c0.1-0.1,0.2-0.3,0.3-0.4c0.2-0.3,0.4-0.5,0.6-0.7c6.2-8.3,12-16,16.6-22.2l-16.7-42.1l24.4,5.4c0.3,1.2,3.8,13.6,5.3,19.1
		c0.3,1,0.5,1.7,0.6,2.2l-0.5-2.3c6.6,0.1,16.1,0.1,27,0h10.3c0.5,0.7,1.1,1.4,1.8,2v0c-0.3,1.6-1.1,5.4-2,10.2h-33.8l24.2,87
		c2.4-0.3,5-0.1,7.3,0.5l3.4-16.9h-2.9c-1.5,0-2.7-1.3-2.6-2.8c0-1.4,1.2-2.6,2.6-2.6h13.8c1.5,0,2.7,1.3,2.6,2.8
		c0,1.5-1.2,2.6-2.6,2.6h-6.7l-3.7,18.4c0.3,0.1,0.5,0.3,0.8,0.4l80-89.3H964c0.2-1,0.4-1.9,0.6-2.8c0.1-0.6,0.2-1.2,0.4-1.8
		c0.1-0.6,0.2-1.1,0.3-1.7c0.2-0.8,0.3-1.5,0.4-2.2c0.3-1.6,0.6-2.9,0.8-3.8h48.1c0.7-0.4,1.4-0.9,2.2-1.3c0.1-0.1,0.3-0.2,0.4-0.2
		l-5.4-22.8l23.1-6.8l2.7,6.8l-16.3,5.4l2.7,13.3c1.5-0.9,2.9-1.7,4.1-2.5c3.1,9.4,6.9,21.1,11,33.4c0,0.1,0.1,0.3,0.1,0.4
		c0.1,0.3,0.2,0.5,0.3,0.8c0,0.1,0,0.1,0.1,0.2c0.3,0.9,0.6,1.7,0.9,2.6c0.2,0.5,0.3,1,0.5,1.5c0.8,2.4,1.6,4.9,2.4,7.4
		c1.2,3.6,2.4,7.2,3.5,10.8c0.3,0.8,0.5,1.6,0.8,2.4c0.1,0.5,0.3,0.9,0.4,1.4c0.1,0.2,0.1,0.3,0.2,0.5c0.8,2.4,1.6,4.8,2.3,7.1
		c0.1,0.4,0.2,0.8,0.4,1.1c0,0,0,0.1,0,0.1c0.1,0.4,0.3,0.8,0.4,1.2c0.1,0.2,0.1,0.4,0.2,0.6c0.2,0.5,0.3,1,0.5,1.5
		c0.6,1.8,1.2,3.5,1.7,5.3c0.4,1.2,0.8,2.3,1.1,3.5c0.4,1.1,0.7,2.2,1.1,3.3c0.2,0.7,0.4,1.4,0.7,2l0.2,0.7c0,0.1,0.1,0.1,0.1,0.2
		c0.1,0.2,0.2,0.5,0.2,0.7c0.1,0.3,0.2,0.6,0.3,0.9c0,0.1,0,0.1,0.1,0.2c0.2,0.6,0.4,1.1,0.5,1.7c0.1,0.1,0.1,0.3,0.1,0.4
		c0.1,0.4,0.3,0.8,0.4,1.2c0.4,1.2,0.8,2.4,1.2,3.5C1069.2,434.5,1078.5,441.8,1078.4,451.3z"/>
	<path class="st7" d="M980.2,230.9l-2.6,2.8l-7.8-19.9c-0.4-1.2-1.1-2.2-1.9-3.1c-0.1-0.2-0.3-0.4-0.5-0.6c-0.1-0.1-0.3-0.3-0.4-0.4
		c-1.9-1.8-4.2-2.7-6.5-2.8c-0.2,0-0.4,0-0.6,0c-1.4,0-2.8,0.2-4.2,0.7c-1.3,0.5-2.5,1.3-3.4,2.2c-0.3,0.2-0.5,0.5-0.7,0.7
		c-1.7,1.8-2.7,4.2-2.7,7v0.1c0,1.3,0.2,2.7,0.7,4.1l11.6,29.6l-56.7,61.4l54.7,26.8c6.9,3.4,10.3,11.1,8.7,18.2
		c0.1,1.5-0.9,5.5-1.3,7.5c0,0.2-0.1,0.4-0.1,0.5c-0.2,0.9-0.4,2.2-0.8,3.8c-0.1,0.7-0.3,1.4-0.4,2.2c-0.1,0.5-0.2,1.1-0.3,1.7
		c-0.1,0.6-0.2,1.2-0.4,1.8c-0.2,0.9-0.4,1.8-0.6,2.8c-3.1,15.7-8.1,40.1-9.4,46.7v0l-0.9,4.2c-2.4,12.3-18.9,15.5-25.7,5.2
		c0,0,0,0,0,0c-2.1-3.1-3-6.9-2.2-10.8c1.1-5.6,6.1-30.5,9.1-45.3c1-4.8,1.7-8.6,2-10.2v0l0.4-2h1.2c-0.1,0-0.1-0.1-0.2-0.1
		c-0.2-0.1-0.5-0.2-0.8-0.4c-0.8-0.4-2.1-1-3.8-1.8c-14.3-7-55.6-27.3-58.3-28.6h0c-1.3-0.7-10.1-4.8-11.1-5.5c0,0,0,0,0,0l-3.9-3.6
		l0,0l-3.4-3.1c-6.6-6.1-7-16.4-0.9-23l91.3-98.8c6.1-6.6,16.4-7,23-0.9l8.8,8.1C985.8,214,986.2,224.3,980.2,230.9z"/>
	<g>
		<circle class="st4" cx="822.6" cy="453.9" r="79.2"/>
	</g>
	<g>
		<circle class="st4" cx="1063.9" cy="453.9" r="79.2"/>
	</g>
</g>
</svg>
